<?xml version="1.0" encoding="UTF-8"?>
<svg id="SVG" xmlns="http://www.w3.org/2000/svg" viewBox="0 0 360 635">
  <defs>
    <style>
      .cls-1 {
        fill: #fff;
      }

      .cls-2 {
        fill: #07c;
      }
    </style>
  </defs>
  <path class="cls-1" d="M48.91,13.24s1.32,31.62-3.76,45.18-10.16,60.99-10.16,82.16,11.58,96.56,6.21,120.28c-5.36,23.72-45.18,90.64-20.61,119.44,24.56,28.8,67.76,43.2,83.86,67.76s53.3,97.74,69.46,119.72c28.24,38.4,89.98,76.64,138.26,37.68,48.28-38.96,37.08-90.48,23.53-123.51-13.55-33.04-91.48-129.6-96.56-137.22-5.08-7.62-17.79-22.02-20.33-40.66-2.54-18.64,4.24-136.38,4.24-161.79s-9.32-64.38-13.55-77.08c-4.24-12.71,2.54-49.98,2.54-49.98,0,0-80.28,6.31-163.11-1.98Z"/>
  <g>
    <path class="cls-2" d="M350.21,522.95h.07s-.56-3.97-.56-3.97l-.43-3.03h-.06c-1.84-11.13-5.29-22.92-10.3-35.14-.82-1.99-1.86-4.21-3.09-6.6l.93-.93-3.07-3.07c-16.95-30.57-58.99-84.86-80.48-112.61-5.92-7.64-10.19-13.16-11.18-14.64-.9-1.35-1.98-2.84-3.23-4.56-5.79-7.97-14.55-20.02-16.54-34.63-1.58-11.6.61-64.26,2.37-106.57,1.02-24.41,1.89-45.5,1.89-54.74,0-26.35-9.69-66.07-13.73-78.19-.3-.91-.55-2.06-.75-3.42-2.06-14.41,3.36-44.52,3.41-44.82l.81-4.47-4.53.36c-.8.06-80.94,6.18-162.48-1.97l-4.01-.4.17,4.03c.01.31,1.22,30.81-3.49,43.65l-1.28,3.48.14.04c-4.93,17.34-9.3,60.49-9.3,80.02,0,7.45,1.37,21.17,2.96,37.06,3,30.04,6.74,67.44,3.34,82.45-1.31,5.8-4.91,14.62-9.08,24.83-2.22,5.44-4.69,11.51-7.06,17.74h-.01s-1.13,3.03-1.13,3.03l-1.32,3.54h.02c-9.09,25.25-16.6,55.37-1.28,73.33,12.34,14.46,28.83,25.12,44.78,35.44,2.14,1.38,4.26,2.76,6.35,4.12,12.59,8.24,25.46,17.17,32.46,27.85,7.05,10.75,18.17,30.91,29.96,52.25,14.98,27.13,30.46,55.18,39.61,67.62,5.75,7.82,12.8,15.51,20.51,22.42l-.03.04,2.53,2.17,2.79,2.39.03-.04c17.11,13.99,36.31,23.52,54.42,26.93,5.23.99,10.39,1.48,15.45,1.48,17.37,0,33.6-5.78,47.58-17.06,27.51-22.2,39.55-50.93,35.83-85.43ZM176.73,565.91c-2.87-3.9-6.42-9.46-10.42-16.1l24.91-24.91-18.1-18.1-4.95,4.95,13.15,13.15-18.7,18.7c-1.4-2.38-2.83-4.86-4.3-7.43l.17-.17-.63-.63c-2.91-5.09-5.94-10.48-9.02-16.01l18.81-18.81-4.95-4.95-17.39,17.39c-2.56-4.62-5.14-9.29-7.71-13.94-3.27-5.92-6.48-11.74-9.58-17.31l10.16-10.16-18.1-18.1-4.95,4.95,13.15,13.15-3.81,3.81c-5.23-9.32-10-17.64-13.95-24.07l4.09-4.09-4.95-4.95-3.01,3.01c-7.12-10.28-18.6-18.76-30.26-26.51.06-.07.13-.14.19-.21.24-.26.49-.53.73-.8.3-.33.6-.66.9-.99.25-.27.49-.55.74-.83.3-.34.6-.68.91-1.03.25-.28.49-.57.74-.85.31-.36.61-.71.92-1.08.25-.29.49-.59.74-.88.31-.37.61-.73.92-1.11.25-.3.5-.61.75-.92.31-.38.61-.76.92-1.15.25-.31.5-.63.74-.94.31-.39.61-.79.92-1.19.25-.32.49-.64.74-.96.31-.41.62-.82.92-1.24.24-.33.48-.65.72-.98.31-.43.62-.86.93-1.29.24-.33.47-.66.71-1,.31-.44.62-.9.94-1.35.23-.33.46-.67.69-1,.32-.47.64-.95.95-1.43.22-.33.44-.66.66-.99.33-.51.66-1.03.99-1.55.2-.31.39-.61.59-.93.38-.6.75-1.21,1.12-1.82.15-.24.3-.48.44-.72.52-.86,1.03-1.73,1.54-2.62.03-.05.06-.1.09-.15.48-.83.95-1.67,1.41-2.52.16-.28.31-.57.46-.86.34-.62.67-1.25,1-1.88.18-.35.36-.72.55-1.07.29-.57.59-1.15.87-1.73.1-.2.2-.4.3-.61l2.33-2.33-.83-.83c.06-.12.11-.24.16-.36.25-.55.51-1.11.75-1.67.19-.44.38-.88.57-1.32.24-.56.48-1.11.71-1.67.19-.45.37-.91.56-1.37.23-.56.45-1.12.67-1.69.18-.47.36-.94.54-1.41.21-.57.43-1.14.64-1.72.17-.48.34-.96.51-1.44.2-.58.4-1.16.6-1.75.16-.49.33-.98.48-1.47.19-.59.38-1.19.56-1.79.15-.5.31-1,.45-1.5.18-.6.35-1.21.52-1.82.14-.51.29-1.01.42-1.52.17-.62.33-1.24.48-1.87.13-.51.26-1.02.39-1.54.15-.64.3-1.28.45-1.93.12-.51.24-1.03.35-1.54.14-.67.28-1.34.41-2.01.1-.51.21-1.01.3-1.52.13-.71.26-1.43.38-2.15.08-.48.17-.96.25-1.44.13-.8.24-1.61.36-2.42.06-.41.12-.82.18-1.24.16-1.23.31-2.47.45-3.72l.31-2.93-36.76-10.5,4.56-4.56-18.1-18.1-4.95,4.95,13.15,13.15-2.36,2.36-29.57-8.45,18.26-18.26-4.95-4.95-21.01,21.01-6.95-1.99c2.28-5.96,4.65-11.78,6.79-17.02,4.28-10.5,7.98-19.57,9.42-25.93,1.84-8.13,1.78-21.84.89-37.34l1.71,1.71,4.95-4.95-7.37-7.37c-.27-3.53-.56-7.09-.88-10.67l17.4-17.4-4.95-4.95-13.28,13.28c-.55-5.79-1.12-11.51-1.67-17-1.57-15.7-2.92-29.26-2.92-36.36,0-6.69.49-15.64,1.29-25.21l7.43,7.43,4.95-4.95-11.54-11.54c.12-1.2.25-2.4.38-3.6l20.31-20.31-4.95-4.95-14.04,14.04c1.53-11.85,3.36-22.56,5.16-28.93.03,0,.06.02.09.02.79.22,1.6.45,2.42.68.22.06.43.12.65.18.79.21,1.59.43,2.41.64.08.02.16.04.25.07.89.23,1.82.46,2.75.7.22.05.44.11.66.16,1.93.47,3.94.94,6.03,1.4.22.05.44.1.66.14,2.13.46,4.34.92,6.63,1.36.22.04.44.08.65.13,1.17.22,2.35.44,3.55.66.02,0,.05,0,.07.01,1.17.21,2.37.41,3.58.61.22.04.44.07.67.11,1.25.2,2.53.4,3.82.6.06,0,.13.02.19.03,1.23.18,2.49.36,3.75.53.22.03.45.06.67.09,1.34.18,2.69.35,4.07.52.11.01.23.03.35.04,1.29.15,2.59.3,3.91.44.22.02.45.05.67.07,1.42.15,2.85.29,4.3.42.16.01.32.03.49.04,1.34.12,2.69.23,4.06.34.23.02.46.04.69.05,1.49.11,2.99.21,4.51.31.21.01.43.02.65.04,1.39.08,2.79.15,4.2.22.23.01.45.02.68.03,1.56.07,3.13.13,4.72.17.26,0,.52.01.78.02,1.45.04,2.91.07,4.38.09.22,0,.44,0,.66.01,1.36.02,2.72.03,4.1.03.24,0,.49,0,.73,0,.46,0,.92,0,1.37,0,1.26,0,2.53-.02,3.81-.04.54,0,1.08-.02,1.62-.03,1.3-.03,2.61-.07,3.93-.11.46-.02.92-.03,1.38-.05,1.78-.07,3.58-.15,5.39-.24.12,0,.25-.02.38-.02,1.67-.09,3.35-.2,5.05-.31.55-.04,1.11-.08,1.66-.12,1.31-.1,2.62-.2,3.94-.31.62-.05,1.24-.11,1.86-.16,1.38-.12,2.77-.26,4.16-.4.52-.05,1.03-.1,1.54-.16,1.9-.2,3.81-.42,5.73-.65.31-.04.63-.08.95-.12,1.61-.2,3.24-.41,4.88-.64.64-.09,1.29-.18,1.93-.28,1.36-.2,2.72-.4,4.09-.61.68-.11,1.36-.21,2.05-.32,1.48-.24,2.98-.49,4.48-.75.53-.09,1.06-.18,1.59-.27,2.01-.36,4.04-.74,6.08-1.13.43-.08.88-.18,1.31-.26,1.62-.32,3.26-.66,4.9-1.01.28-.06.55-.11.82-.17.09.33.19.65.29.96,3.94,11.81,13.37,50.43,13.37,75.98,0,.82,0,1.74-.02,2.75l-.18.18.17.17c-.09,6.16-.42,15.55-.86,26.81l-8.47,8.47,4.95,4.95,3.1-3.1c-.19,4.56-.39,9.32-.59,14.23-.54,13.05-1.11,26.6-1.59,39.56l-4.03-4.03-27.25,27.25,18.1,18.1,4.95-4.95-13.15-13.15,21.31-21.31c-.53,14.37-.96,27.93-1.15,39.17l-6.49,6.49,4.95,4.95,1.44-1.44c-.02,7.89.16,13.91.6,17.17,2.23,16.35,11.61,29.26,17.81,37.8,1.21,1.66,2.25,3.09,3.07,4.33,1.12,1.68,5.24,7,11.47,15.04,15.26,19.7,44.58,57.56,64.86,87.68l-21.66,21.66,18.1,18.1,4.95-4.95-13.15-13.15,15.71-15.71c6.02,9.2,10.98,17.44,14.13,23.9l-16.16,16.16,4.95,4.95,14.19-14.19c4.03,10.3,6.91,20.25,8.56,29.66-.11,0-.22,0-.33,0-.31,0-.62.02-.94.02-.28,0-.57.02-.86.02-.31,0-.63.02-.95.03-.31.01-.62.02-.94.03-.32.01-.65.02-.98.04-.34.01-.69.03-1.05.05-.32.01-.64.03-.97.05-.38.02-.77.04-1.16.06-.32.02-.64.03-.96.05-.44.03-.9.05-1.35.08-.29.02-.57.03-.86.05-.75.05-1.51.1-2.29.16-.06,0-.13.01-.19.02-.72.05-1.45.11-2.19.17-.27.02-.54.05-.81.07-.54.05-1.08.09-1.64.15-.33.03-.67.06-1,.1-.51.05-1.02.1-1.53.15-.35.04-.71.08-1.06.11-.51.05-1.02.11-1.54.17-.37.04-.74.09-1.11.13-.51.06-1.03.12-1.55.19-.38.05-.77.1-1.16.15-.52.07-1.04.14-1.57.21-.39.05-.77.11-1.16.16-.54.08-1.08.15-1.62.23-.39.06-.78.12-1.17.18-.55.08-1.11.17-1.67.26-.38.06-.77.12-1.15.19-.58.1-1.17.2-1.76.3-.37.06-.73.13-1.1.19-.64.11-1.27.23-1.91.35-.33.06-.65.12-.98.18-.79.15-1.59.31-2.39.48-.18.04-.35.07-.52.11-.98.2-1.97.42-2.96.64-.19.04-.37.09-.56.13-.47.11-.93.21-1.4.32l-15.24-15.24-4.95,4.95,12.32,12.32c-.09.02-.17.05-.26.08-.59.17-1.18.34-1.77.51-.42.12-.83.25-1.25.38-.58.18-1.15.35-1.73.54-.42.13-.84.27-1.26.4-.57.19-1.14.38-1.72.57-.42.14-.84.28-1.25.43-.57.2-1.14.4-1.72.61-.41.15-.82.3-1.23.45-.58.22-1.15.44-1.73.66-.4.15-.8.31-1.2.46-.6.24-1.19.48-1.78.73-.37.15-.75.31-1.12.46-.65.28-1.3.56-1.94.85-.31.14-.61.27-.92.41-.95.43-1.89.87-2.83,1.33-.31.15-.6.31-.91.46l-10.54-10.54,22.3-22.3-4.95-4.95-27.25,27.25,13.95,13.95c-1.2.66-2.4,1.33-3.56,2.01-.7.41-1.37.84-2.06,1.26-1.05.64-2.11,1.28-3.14,1.94-.72.46-1.42.93-2.13,1.4-.97.64-1.95,1.28-2.9,1.94-.72.49-1.41,1-2.12,1.5-.91.65-1.83,1.3-2.72,1.96-.7.52-1.39,1.05-2.08,1.57-.87.66-1.73,1.32-2.57,1.98-.68.54-1.35,1.08-2.02,1.62-.82.67-1.64,1.34-2.45,2.01-.66.55-1.3,1.1-1.94,1.66-.79.68-1.57,1.35-2.33,2.03-.63.56-1.25,1.11-1.86,1.67-.75.68-1.49,1.37-2.23,2.05-.6.56-1.19,1.12-1.77,1.68-.72.69-1.42,1.37-2.12,2.06-.57.56-1.13,1.11-1.68,1.67-.69.69-1.36,1.38-2.03,2.07-.53.55-1.06,1.09-1.57,1.63-.66.69-1.3,1.38-1.94,2.07-.49.53-.99,1.07-1.47,1.6-.63.69-1.24,1.38-1.85,2.06-.46.51-.92,1.03-1.36,1.54-.61.7-1.19,1.39-1.78,2.07-.41.48-.83.97-1.23,1.44-.6.71-1.16,1.41-1.74,2.1-.36.44-.73.88-1.07,1.31-.07.08-.14.17-.2.25-7.22-6.51-13.81-13.74-19.2-21.06Z"/>
    <polygon class="cls-2" points="66.79 88.85 61.84 93.8 74.99 106.95 52.69 129.26 57.64 134.2 84.89 106.95 66.79 88.85"/>
    <polygon class="cls-2" points="158.51 118.06 145.36 104.91 167.66 82.6 162.71 77.65 135.46 104.91 153.56 123 158.51 118.06"/>
    <polygon class="cls-2" points="159.03 129.26 163.98 134.2 191.23 106.95 173.13 88.85 168.18 93.8 181.33 106.95 159.03 129.26"/>
    <polygon class="cls-2" points="100.51 174.6 105.46 169.65 92.31 156.51 114.62 134.2 109.67 129.26 82.42 156.51 100.51 174.6"/>
    <polygon class="cls-2" points="105.99 180.85 110.94 185.8 138.19 158.55 120.09 140.45 115.14 145.4 128.29 158.55 105.99 180.85"/>
    <polygon class="cls-2" points="204.72 174.6 209.67 169.65 196.52 156.51 218.82 134.2 213.87 129.26 186.62 156.51 204.72 174.6"/>
    <polygon class="cls-2" points="66.79 192.06 61.84 197 74.99 210.15 52.69 232.46 57.64 237.4 84.89 210.15 66.79 192.06"/>
    <polygon class="cls-2" points="162.71 180.85 135.46 208.11 153.56 226.2 158.51 221.26 145.36 208.11 167.66 185.8 162.71 180.85"/>
    <polygon class="cls-2" points="168.18 197 181.33 210.15 159.03 232.46 163.98 237.4 191.23 210.15 173.13 192.06 168.18 197"/>
    <polygon class="cls-2" points="114.62 237.4 109.67 232.46 82.42 259.71 100.51 277.81 105.46 272.86 92.31 259.71 114.62 237.4"/>
    <polygon class="cls-2" points="120.09 243.66 115.14 248.6 128.29 261.75 105.99 284.06 110.94 289.01 138.19 261.75 120.09 243.66"/>
    <polygon class="cls-2" points="202.88 383.57 207.83 378.63 194.68 365.48 216.98 343.17 212.03 338.23 184.78 365.48 202.88 383.57"/>
    <polygon class="cls-2" points="208.35 389.83 213.3 394.77 240.55 367.52 222.45 349.43 217.51 354.37 230.65 367.52 208.35 389.83"/>
    <polygon class="cls-2" points="162.71 285.77 135.46 313.02 153.56 331.12 158.51 326.17 145.36 313.02 167.66 290.72 162.71 285.77"/>
    <polygon class="cls-2" points="168.18 301.92 181.33 315.07 159.03 337.37 163.98 342.32 191.23 315.07 173.13 296.97 168.18 301.92"/>
    <polygon class="cls-2" points="120.09 348.57 115.14 353.52 128.29 366.67 105.99 388.97 110.94 393.92 138.19 366.67 120.09 348.57"/>
    <polygon class="cls-2" points="167.66 395.63 162.71 390.68 135.46 417.93 153.56 436.03 158.51 431.08 145.36 417.93 167.66 395.63"/>
    <polygon class="cls-2" points="173.13 401.88 168.18 406.83 181.33 419.98 159.03 442.28 163.98 447.23 191.23 419.98 173.13 401.88"/>
    <polygon class="cls-2" points="247.47 436.03 252.42 431.08 239.27 417.93 261.57 395.63 256.62 390.68 229.37 417.93 247.47 436.03"/>
    <polygon class="cls-2" points="252.94 442.28 257.89 447.23 285.14 419.98 267.04 401.88 262.09 406.83 275.24 419.98 252.94 442.28"/>
    <polygon class="cls-2" points="209.67 484.4 196.52 471.25 218.82 448.94 213.87 443.99 186.62 471.25 204.72 489.34 209.67 484.4"/>
    <polygon class="cls-2" points="219.35 460.14 232.49 473.29 210.19 495.6 215.14 500.54 242.39 473.29 224.3 455.19 219.35 460.14"/>
  </g>
</svg>