<?xml version="1.0" encoding="UTF-8"?>
<svg id="SVG" xmlns="http://www.w3.org/2000/svg" viewBox="0 0 360 635">
  <defs>
    <style>
      .cls-1 {
        fill: #fff;
      }

      .cls-2 {
        fill: #07c;
      }
    </style>
  </defs>
  <path class="cls-1" d="M48.91,13.24s1.32,31.62-3.76,45.18-10.16,60.99-10.16,82.16,11.58,96.56,6.21,120.28c-5.36,23.72-45.18,90.64-20.61,119.44,24.56,28.8,67.76,43.2,83.86,67.76s53.3,97.74,69.46,119.72c28.24,38.4,89.98,76.64,138.26,37.68,48.28-38.96,37.08-90.48,23.53-123.51-13.55-33.04-91.48-129.6-96.56-137.22-5.08-7.62-17.79-22.02-20.33-40.66-2.54-18.64,4.24-136.38,4.24-161.79s-9.32-64.38-13.55-77.08c-4.24-12.71,2.54-49.98,2.54-49.98,0,0-80.28,6.31-163.11-1.98Z"/>
  <path class="cls-2" d="M350.21,522.95h.07s-.56-3.97-.56-3.97l-.43-3.03h-.06c-1.84-11.13-5.29-22.93-10.3-35.14-10.92-26.63-61.44-91.85-85.71-123.2-5.92-7.64-10.19-13.16-11.18-14.64-.9-1.35-1.98-2.84-3.23-4.56-5.79-7.97-14.55-20.02-16.54-34.63-1.58-11.6.61-64.26,2.37-106.57,1.02-24.41,1.89-45.5,1.89-54.74,0-26.35-9.69-66.07-13.73-78.19-.3-.91-.55-2.06-.75-3.42-2.06-14.41,3.36-44.52,3.41-44.82l.81-4.47-4.53.36c-.8.06-80.94,6.18-162.48-1.97l-4.01-.4.17,4.03c.01.31,1.22,30.81-3.49,43.65l-1.28,3.48.14.04c-4.93,17.34-9.3,60.49-9.3,80.02,0,7.45,1.37,21.17,2.96,37.06,3,30.04,6.74,67.44,3.34,82.45-1.31,5.8-4.91,14.62-9.08,24.83-2.22,5.44-4.69,11.51-7.06,17.74h-.01s-1.13,3.03-1.13,3.03l-1.32,3.54h.02c-9.09,25.25-16.6,55.37-1.28,73.33,12.34,14.46,28.83,25.12,44.78,35.44,2.14,1.38,4.26,2.76,6.35,4.12,12.59,8.24,25.46,17.17,32.46,27.85,7.05,10.75,18.17,30.91,29.96,52.25,14.98,27.13,30.46,55.18,39.61,67.62,5.75,7.82,12.8,15.51,20.51,22.42l-.03.04,2.53,2.17,2.79,2.39.03-.04c17.11,13.99,36.31,23.52,54.42,26.93,5.23.99,10.39,1.48,15.45,1.48,17.37,0,33.6-5.78,47.58-17.06,27.51-22.2,39.55-50.93,35.83-85.43ZM281.38,523.47c0-11.18-6.7-24.21-13.79-38.01-8.03-15.61-16.33-31.76-16.33-46.98,0-13.76,5.37-23.93,11.05-34.69,2.38-4.5,4.77-9.07,6.84-13.97,5.76,7.58,11.88,15.72,17.99,23.99-2.02,5.87-3.38,12.25-3.38,19.55,0,15.62,7.88,31.52,15.5,46.89,6.21,12.53,12.58,25.41,14.6,37.96-.22.03-.44.06-.67.09-.39.05-.77.11-1.16.16-.54.08-1.08.15-1.62.23-.39.06-.78.12-1.17.18-.55.08-1.11.17-1.67.26-.38.06-.77.12-1.15.19-.58.1-1.17.2-1.76.3-.37.06-.73.13-1.1.19-.64.11-1.27.23-1.91.35-.33.06-.65.12-.98.18-.79.15-1.59.31-2.39.48-.17.04-.35.07-.52.11-.98.2-1.97.42-2.96.64-.19.04-.37.09-.56.13-.8.18-1.59.36-2.39.56-.33.08-.66.16-.99.24-.66.16-1.32.32-1.97.49-.38.1-.76.2-1.14.3-.61.16-1.22.32-1.84.49-.4.11-.81.23-1.21.34-.59.17-1.18.34-1.77.51-.42.12-.83.25-1.25.38-.11.03-.22.06-.33.1.03-.92.03-1.5.03-1.65ZM342.17,516.02c-.11,0-.22,0-.33,0-.31,0-.62.02-.94.02-.28,0-.57.02-.86.02-.31,0-.63.02-.95.03-.31.01-.62.02-.94.03-.32.01-.65.02-.98.04-.34.01-.69.03-1.05.05-.32.01-.64.03-.97.05-.38.02-.77.04-1.16.06-.32.02-.64.03-.96.05-.44.03-.9.05-1.35.08-.29.02-.57.03-.86.05-.75.05-1.51.1-2.29.16-.06,0-.13.01-.19.02-.72.05-1.45.11-2.19.17-.27.02-.54.05-.81.07-.54.05-1.08.09-1.64.15-.33.03-.67.06-1,.1-.51.05-1.02.1-1.53.15-.12.01-.24.02-.35.04-2.13-13.66-8.8-27.13-15.29-40.24-7.59-15.33-14.77-29.8-14.77-43.78,0-4.5.58-8.61,1.56-12.49,17.91,24.58,34.64,49.2,40.14,62.61,4.65,11.33,7.91,22.26,9.7,32.55ZM264.19,383.31c-2.19,6.02-5.08,11.54-8.07,17.21-5.83,11.04-11.86,22.47-11.86,37.96,0,16.91,9.09,34.58,17.1,50.18,6.7,13.02,13.02,25.32,13.02,34.87,0,.06,0,1.54-.23,3.99-.05.02-.1.04-.15.05-.41.15-.82.3-1.23.45-.58.22-1.15.44-1.73.66-.4.15-.8.31-1.2.46-.6.24-1.19.48-1.78.73-.37.15-.75.31-1.12.46-.65.28-1.3.56-1.94.85-.31.14-.61.27-.92.41-.95.43-1.89.87-2.83,1.33-1.89.92-3.74,1.87-5.57,2.86-.6.32-1.18.67-1.78,1-1.21.67-2.42,1.34-3.61,2.04-.51.3-1,.61-1.51.92.45-5.97.06-9.43-.11-10.56-.11-11.03-6.41-25.2-13.06-40.2-7.68-17.29-15.61-35.17-15.61-50.49,0-13.76,5.37-23.93,11.05-34.69,6.23-11.79,12.66-23.98,12.66-41.6,0-2-.1-3.91-.27-5.76,1.27,1.65,2.69,3.48,4.24,5.48,4.48,5.79,10.18,13.14,16.5,21.41ZM219.54,142.48c0,9.1-.88,30.12-1.89,54.45-.86,20.67-1.77,42.6-2.34,61.44-1.42,6.05-2.31,12.81-2.31,20.83,0,7.05.71,13.22,1.87,18.77.1,2.86.25,5.16.47,6.78,2.23,16.35,11.61,29.26,17.81,37.8.09.13.18.25.27.37,1.99,5.68,3.3,11.88,3.3,19.28,0,15.88-5.76,26.78-11.85,38.33-5.83,11.04-11.86,22.47-11.86,37.96,0,16.8,8.24,35.37,16.22,53.33,6.41,14.44,12.46,28.07,12.46,37.66v.34s.06.31.06.31c.02.12.79,4.78-.58,14.48-.37.25-.73.5-1.09.75-.72.49-1.41,1-2.12,1.5-.91.65-1.83,1.3-2.72,1.96-.7.52-1.39,1.05-2.08,1.57-.87.66-1.73,1.32-2.57,1.98-.68.54-1.35,1.08-2.02,1.62-.82.67-1.64,1.34-2.45,2.01-.66.55-1.3,1.1-1.94,1.66-.79.68-1.57,1.35-2.33,2.03-.63.56-1.25,1.11-1.86,1.67-.75.68-1.49,1.37-2.23,2.05-.6.56-1.19,1.12-1.77,1.68-.72.69-1.42,1.37-2.12,2.06-.57.56-1.13,1.11-1.68,1.67-.69.69-1.36,1.38-2.03,2.07-.53.55-1.06,1.09-1.57,1.63-.66.69-1.3,1.38-1.94,2.07-.5.53-.99,1.07-1.47,1.6-.63.69-1.24,1.38-1.85,2.06-.46.51-.92,1.03-1.36,1.54-.61.7-1.19,1.39-1.78,2.07-.41.48-.83.97-1.23,1.44-.6.71-1.16,1.41-1.74,2.1-.36.44-.73.88-1.07,1.31-.07.08-.14.17-.2.25-.72-.65-1.42-1.31-2.13-1.97,20.57-38.73,20.67-57.4,20.64-58.99-.02-16.61-8.14-33.01-16-48.87-7.59-15.33-14.77-29.8-14.77-43.78s5.37-23.93,11.05-34.69c6.23-11.79,12.66-23.98,12.66-41.6,0-16.34-5.74-27.5-11.29-38.3-6.11-11.88-12.43-24.16-12.43-44.7,0-18.51,5.17-30.03,10.63-42.23,6.13-13.68,13.08-29.18,13.08-56.2,0-29.6-9.04-44.86-16.31-57.13-5.4-9.11-9.66-16.31-9.66-27.16,0-7.06,1.5-14.64,3.68-21.96.53-.08,1.07-.17,1.61-.26,1.48-.24,2.97-.49,4.47-.75.53-.09,1.06-.18,1.6-.28,2.01-.36,4.04-.74,6.08-1.13.44-.09.88-.18,1.32-.27,1.62-.32,3.25-.66,4.89-1,.28-.06.55-.11.82-.17.09.33.19.65.29.96,3.94,11.81,13.37,50.44,13.37,75.98ZM38.5,140.78c0-4.91.26-11.04.72-17.74,5.32,10.28,9.91,23.2,9.91,43.96,0,15.04-2.21,26.12-5.27,35.49-.76-8.61-1.62-17.24-2.43-25.35-1.57-15.7-2.92-29.26-2.92-36.36ZM44.62,261.84c2.07-9.17,1.74-25.41.51-43.33,5.52-12.61,11-27.52,11-51.5,0-29.03-8.7-44.27-15.89-56.41,1.73-18.47,4.52-38.15,7.27-47.83.03,0,.06.02.09.02.79.22,1.6.45,2.42.68.22.06.43.12.65.18.79.21,1.59.43,2.41.64.08.02.16.04.25.07.89.23,1.82.46,2.75.7.22.05.44.11.66.16,1.9.46,3.87.93,5.93,1.38-1.92,7.06-3.18,14.33-3.18,21.26,0,12.77,5.17,21.49,10.64,30.72,7.19,12.13,15.33,25.88,15.33,53.56,0,25.52-6.34,39.66-12.47,53.34-5.78,12.9-11.25,25.08-11.25,45.09,0,21.98,6.84,35.54,12.98,47.47l-30.27-8.65c-3.41-6.64-6.83-13.46-9.15-21.82,4.25-10.41,7.9-19.4,9.33-25.71ZM31.25,297.54c1.26,3.27,2.64,6.32,4.04,9.22l-6.89-1.97c.94-2.46,1.89-4.88,2.84-7.26ZM76.4,418.78c.06-.07.13-.14.19-.21.24-.26.49-.53.73-.8.3-.33.6-.66.9-.99.25-.27.49-.55.74-.83.3-.34.6-.68.91-1.03.25-.28.49-.57.74-.85.31-.36.61-.71.92-1.08.25-.29.49-.59.74-.88.31-.37.61-.73.92-1.11.25-.3.5-.61.75-.92.31-.38.61-.76.92-1.15.25-.31.5-.63.74-.94.31-.39.61-.79.92-1.19.25-.32.49-.64.74-.96.31-.41.62-.82.92-1.24.24-.33.48-.65.72-.98.31-.43.62-.86.93-1.29.24-.33.47-.66.71-1,.31-.44.62-.9.94-1.35.23-.33.46-.67.69-1,.32-.47.64-.95.95-1.43.22-.33.44-.66.66-.99.33-.51.66-1.03.99-1.55.2-.31.39-.61.59-.93.38-.6.75-1.21,1.12-1.82.15-.24.3-.48.44-.72.52-.86,1.03-1.73,1.54-2.62.03-.05.06-.1.09-.15.48-.83.95-1.67,1.41-2.52.16-.28.31-.57.46-.86.34-.62.67-1.25,1-1.88.18-.35.36-.72.55-1.07.29-.57.59-1.15.87-1.73.19-.39.38-.79.58-1.19.27-.56.54-1.11.8-1.68.2-.42.39-.84.58-1.26.25-.55.51-1.11.75-1.67.19-.44.38-.88.57-1.32.24-.56.48-1.11.71-1.67.19-.45.37-.91.56-1.37.23-.56.45-1.12.67-1.69.18-.47.36-.94.54-1.41.21-.57.43-1.14.64-1.72.17-.48.34-.96.51-1.44.2-.58.4-1.16.6-1.75.16-.49.33-.98.48-1.47.19-.59.38-1.19.56-1.79.15-.5.31-1,.45-1.5.18-.6.35-1.21.52-1.82.14-.51.29-1.01.42-1.52.17-.62.33-1.24.48-1.87.13-.51.26-1.02.39-1.54.15-.64.3-1.28.45-1.93.12-.51.24-1.03.35-1.54.14-.67.28-1.34.41-2.01.1-.51.21-1.01.3-1.52.13-.71.26-1.43.38-2.15.08-.48.17-.96.25-1.44.13-.8.24-1.61.36-2.42.06-.41.13-.82.18-1.24.16-1.23.31-2.47.45-3.72l.31-2.93-33.2-9.49c-.9-1.82-1.82-3.61-2.73-5.39-6.11-11.88-12.43-24.16-12.43-44.7,0-18.51,5.17-30.03,10.63-42.23,6.13-13.68,13.08-29.18,13.08-56.2,0-29.6-9.04-44.86-16.31-57.13-5.4-9.11-9.66-16.31-9.66-27.16,0-6.37,1.22-13.17,3.06-19.83.17.03.34.06.5.1.22.04.43.08.65.13,1.17.22,2.35.44,3.56.66.02,0,.04,0,.07.01,1.18.21,2.38.41,3.59.61.22.04.44.07.66.11,1.26.2,2.53.41,3.83.6.06,0,.12.02.18.03,1.24.18,2.5.36,3.77.54.22.03.44.06.67.09,1.34.18,2.69.35,4.07.52.11.01.22.03.33.04,1.29.15,2.6.3,3.92.44.22.02.44.05.66.07,1.42.15,2.85.29,4.31.42.16.01.32.03.48.04.12.01.23.02.35.03-1.57,6.31-2.56,12.74-2.56,18.9,0,12.77,5.17,21.49,10.64,30.72,7.19,12.13,15.33,25.88,15.33,53.56,0,25.52-6.34,39.66-12.47,53.34-5.78,12.9-11.25,25.08-11.25,45.09,0,22.24,7.01,35.88,13.2,47.91,5.41,10.51,10.52,20.44,10.52,35.09,0,15.88-5.76,26.78-11.85,38.33-5.83,11.04-11.86,22.47-11.86,37.96,0,1.77.12,3.48.3,5.14-6.86-7.33-15.75-13.74-24.74-19.71ZM137.19,498.29h.29c0-11.52-6.76-20.32-13.92-29.62-7.73-10.05-15.73-20.45-15.73-35.32,0-13.76,5.37-23.93,11.05-34.69,6.23-11.79,12.66-23.98,12.66-41.6,0-16.34-5.74-27.5-11.29-38.3-6.11-11.88-12.43-24.16-12.43-44.7,0-18.51,5.17-30.03,10.63-42.23,6.13-13.68,13.08-29.18,13.08-56.2,0-29.6-9.04-44.86-16.31-57.13-5.4-9.11-9.66-16.31-9.66-27.16,0-5.9,1.05-12.17,2.66-18.35.6.04,1.21.08,1.81.12.21.01.43.02.64.04,1.39.08,2.79.16,4.21.22.23.01.45.02.68.03,1.56.07,3.13.13,4.72.17.26,0,.52.01.78.02,1.45.04,2.91.07,4.39.09.22,0,.44,0,.66.01,1.36.02,2.72.03,4.1.03.24,0,.49,0,.73,0,.46,0,.92,0,1.38,0,1.26,0,2.53-.02,3.8-.04.54,0,1.08-.02,1.62-.03.26,0,.51,0,.76-.01-2.16,7.56-3.63,15.4-3.63,22.85,0,12.77,5.17,21.49,10.64,30.72,7.19,12.13,15.34,25.88,15.34,53.56,0,25.52-6.34,39.66-12.47,53.34-5.78,12.9-11.25,25.08-11.25,45.09,0,22.24,7.01,35.88,13.2,47.91,5.41,10.51,10.52,20.45,10.52,35.09,0,15.88-5.76,26.78-11.85,38.33-5.83,11.04-11.86,22.47-11.86,37.96,0,16.91,9.09,34.58,17.1,50.18,6.7,13.02,13.02,25.32,13.02,34.87,0,.16.04,9.51-4.02,21.15-7.74-13.17-16.79-29.56-25.66-45.62-.14-.25-.28-.51-.42-.76ZM176.73,565.91c-2.5-3.4-5.51-8.04-8.88-13.56,6.54-15.03,6.45-28.08,6.43-28.88,0-11.18-6.7-24.21-13.79-38.01-8.03-15.61-16.33-31.76-16.33-46.98,0-13.76,5.37-23.93,11.05-34.69,6.23-11.79,12.66-23.98,12.66-41.6,0-16.34-5.74-27.5-11.29-38.3-6.11-11.88-12.43-24.16-12.43-44.7,0-18.51,5.17-30.03,10.63-42.23,6.13-13.68,13.08-29.18,13.08-56.2,0-29.6-9.05-44.86-16.31-57.13-5.4-9.11-9.66-16.31-9.66-27.16,0-7.43,1.65-15.44,4.02-23.12.85-.04,1.69-.07,2.54-.12.13,0,.26-.02.39-.02,1.66-.09,3.34-.19,5.03-.31.55-.04,1.11-.08,1.67-.12,1.3-.1,2.62-.2,3.94-.31.62-.05,1.24-.11,1.86-.16,1.37-.12,2.76-.26,4.15-.4.52-.05,1.03-.1,1.55-.16,1.9-.2,3.8-.42,5.73-.65.32-.04.64-.08.96-.12,1.23-.15,2.47-.31,3.71-.48-1.85,6.93-3.07,14.05-3.07,20.84,0,12.77,5.17,21.49,10.64,30.72,7.19,12.13,15.33,25.88,15.33,53.56,0,25.52-6.34,39.66-12.47,53.34-5.78,12.9-11.25,25.08-11.25,45.09,0,22.24,7.01,35.88,13.2,47.91,5.41,10.51,10.52,20.44,10.52,35.09,0,15.88-5.76,26.78-11.85,38.33-5.83,11.04-11.86,22.47-11.86,37.96s7.88,31.52,15.49,46.89c7.51,15.16,15.27,30.83,15.27,45.81v.1c.16,6.55-3.92,25.05-18.86,53.7-4.35-4.5-8.36-9.2-11.85-13.95Z"/>
</svg>