<?xml version="1.0" encoding="UTF-8"?>
<svg id="SVG" xmlns="http://www.w3.org/2000/svg" viewBox="0 0 360 635">
  <defs>
    <style>
      .cls-1 {
        fill: #fff;
      }

      .cls-2 {
        fill: #07c;
      }
    </style>
  </defs>
  <path class="cls-1" d="M48.91,13.24s1.32,31.62-3.76,45.18-10.16,60.99-10.16,82.16,11.58,96.56,6.21,120.28-45.18,90.64-20.61,119.44c24.56,28.8,67.76,43.2,83.86,67.76s53.3,97.74,69.46,119.72c28.24,38.4,89.98,76.64,138.26,37.68,48.28-38.96,37.08-90.48,23.53-123.51-13.55-33.04-91.48-129.6-96.56-137.22-5.08-7.62-17.79-22.02-20.33-40.66-2.54-18.64,4.24-136.38,4.24-161.79s-9.32-64.38-13.55-77.08c-4.24-12.71,2.54-49.98,2.54-49.98,0,0-80.28,6.31-163.11-1.98Z"/>
  <path class="cls-2" d="M350.21,522.95h.07s-.56-3.97-.56-3.97l-.43-3.03h-.06c-1.84-11.13-5.29-22.92-10.3-35.14-10.92-26.63-61.44-91.85-85.71-123.2-5.92-7.64-10.19-13.16-11.18-14.64-.9-1.35-1.98-2.84-3.23-4.56-5.79-7.97-14.55-20.02-16.54-34.63-1.58-11.6.61-64.26,2.37-106.57,1.02-24.41,1.89-45.5,1.89-54.74,0-26.35-9.69-66.07-13.73-78.19-.3-.9-.55-2.06-.75-3.42-2.06-14.41,3.36-44.52,3.41-44.82l.81-4.47-4.53.36c-.8.06-80.94,6.19-162.48-1.97l-4.01-.4.17,4.03c.01.31,1.22,30.81-3.49,43.65l-1.28,3.48.14.04c-4.93,17.34-9.3,60.49-9.3,80.02,0,7.45,1.37,21.17,2.96,37.06,3,30.04,6.74,67.44,3.34,82.45-1.31,5.8-4.91,14.62-9.08,24.83-2.22,5.44-4.69,11.51-7.06,17.74h-.01s-1.13,3.03-1.13,3.03l-1.32,3.54h.02c-9.09,25.25-16.6,55.37-1.28,73.33,12.33,14.46,28.82,25.12,44.77,35.43,2.14,1.39,4.27,2.76,6.36,4.13,12.59,8.24,25.46,17.17,32.46,27.85,7.05,10.75,18.18,30.91,29.96,52.26,14.98,27.13,30.46,55.18,39.61,67.62,5.75,7.82,12.8,15.51,20.51,22.42l-.03.04,2.53,2.17,2.79,2.39.03-.04c17.11,13.99,36.31,23.52,54.42,26.93,5.23.99,10.39,1.48,15.45,1.48,17.37,0,33.6-5.78,47.58-17.06,27.51-22.2,39.55-50.93,35.83-85.43ZM40,162.72c-.89-9.38-1.51-17.14-1.51-21.94,0-2.85.09-6.12.25-9.67,9.4,2.41,20,4.74,31.67,6.67,16.89,2.79,37.35,4.93,60.39,4.93,26.54,0,56.49-2.87,88.28-10.85.29,3.7.45,7.27.45,10.61,0,4.39-.2,11.57-.53,20.56-56.49,16.68-107.22,14.1-141.49,8.35-14.4-2.42-27.05-5.56-37.52-8.66ZM213.87,97.06c-54.47,14.3-103.21,11.76-136.49,6.39-13.51-2.18-25.47-4.96-35.55-7.76,1.63-13.41,3.66-25.86,5.66-32.94.01,0,.02,0,.03,0,.82.24,1.68.47,2.54.71.17.05.34.09.51.14.85.23,1.72.46,2.61.69.03,0,.07.02.1.03.91.24,1.85.47,2.81.71.2.05.41.1.61.15,1.93.47,3.94.94,6.04,1.41.23.05.46.1.69.15,2.11.46,4.3.91,6.57,1.35.25.05.49.09.74.14,1.14.22,2.3.43,3.48.64.07.01.14.02.21.04,1.12.2,2.25.39,3.4.58.26.04.53.09.79.13,1.22.2,2.45.39,3.71.58.14.02.28.04.41.06,1.14.17,2.3.33,3.48.5.29.04.57.08.86.12,1.29.17,2.6.34,3.92.5.19.02.39.05.59.07,1.19.14,2.39.28,3.6.41.3.03.59.06.89.1,1.36.14,2.74.28,4.14.41.25.02.5.04.74.07,1.23.11,2.47.21,3.72.31.31.02.62.05.93.07,1.43.11,2.88.2,4.34.29.3.02.59.03.89.05,1.28.07,2.57.14,3.88.2.31.01.62.03.93.04,1.5.07,3.02.12,4.56.17.33.01.67.02,1.01.03,1.34.04,2.7.06,4.06.08.31,0,.61.01.92.01,1.33.02,2.68.03,4.03.03.22,0,.44,0,.66,0,.53,0,1.06,0,1.6-.01,1.18,0,2.36-.02,3.56-.04.6-.01,1.2-.02,1.81-.04,1.22-.03,2.45-.06,3.69-.1.53-.02,1.06-.03,1.59-.05,1.75-.07,3.51-.14,5.3-.24.22-.01.45-.03.68-.04,1.57-.09,3.15-.18,4.74-.29.6-.04,1.2-.09,1.81-.13,1.25-.09,2.51-.19,3.78-.3.66-.06,1.32-.11,1.98-.17,1.32-.12,2.66-.25,4-.38.56-.06,1.12-.11,1.69-.17,1.88-.2,3.77-.41,5.67-.65.36-.04.73-.1,1.1-.14,1.57-.2,3.14-.4,4.72-.62.66-.09,1.33-.19,2-.29,1.34-.19,2.68-.39,4.03-.6.69-.11,1.39-.22,2.09-.33,1.47-.24,2.95-.49,4.43-.74.54-.09,1.08-.18,1.63-.28,2.01-.36,4.04-.73,6.07-1.13.44-.09.89-.18,1.33-.27,1.62-.32,3.25-.65,4.88-1,.28-.06.55-.11.82-.17.09.33.19.65.29.96,1.86,5.59,4.96,17.19,7.7,30.56ZM176.73,565.91c-8.88-12.07-24.25-39.92-39.12-66.85-11.85-21.46-23.04-41.74-30.23-52.71-7.05-10.76-18.93-19.55-30.98-27.57.06-.07.13-.14.19-.21.24-.26.48-.53.73-.8.3-.33.6-.66.91-1,.24-.27.49-.55.73-.82.3-.34.61-.68.91-1.03.25-.28.5-.57.74-.86.3-.35.61-.71.91-1.07.25-.29.5-.59.75-.89.3-.36.61-.73.91-1.1.25-.3.5-.61.75-.92.3-.38.61-.76.91-1.14.25-.32.5-.63.75-.95.3-.39.61-.78.91-1.18.25-.32.49-.64.74-.97.31-.41.61-.82.92-1.23.24-.33.48-.65.73-.98.31-.42.62-.85.93-1.29.24-.33.48-.67.71-1,.31-.44.62-.89.93-1.34.23-.33.46-.67.69-1.01.32-.47.63-.94.95-1.42.22-.33.44-.66.66-1,.33-.51.66-1.02.98-1.53.2-.32.4-.63.6-.95.37-.59.73-1.19,1.1-1.79.15-.25.31-.5.46-.76.52-.86,1.03-1.73,1.54-2.61.03-.06.07-.12.1-.18.47-.82.94-1.66,1.4-2.5.16-.29.31-.58.46-.87.33-.62.67-1.24,1-1.87.18-.35.36-.71.54-1.07.29-.58.59-1.15.88-1.73.19-.39.38-.78.57-1.17.27-.56.54-1.12.81-1.69.19-.41.38-.83.57-1.25.25-.56.51-1.11.76-1.68.19-.44.38-.88.57-1.32.24-.56.48-1.11.71-1.68.19-.45.37-.91.55-1.36.23-.56.45-1.13.68-1.7.18-.47.36-.93.53-1.4.22-.57.43-1.15.64-1.72.17-.48.34-.96.51-1.44.2-.58.4-1.17.6-1.75.16-.49.32-.98.48-1.47.19-.59.38-1.19.56-1.79.15-.5.3-.99.45-1.49.18-.61.35-1.22.53-1.84.14-.5.28-1,.42-1.51.17-.62.33-1.25.49-1.89.13-.51.26-1.01.38-1.52.16-.64.3-1.3.45-1.95.11-.51.23-1.01.34-1.52.14-.67.28-1.35.42-2.03.1-.5.2-.99.3-1.5.13-.72.26-1.44.38-2.16.08-.48.17-.95.25-1.43.13-.81.25-1.62.36-2.44.06-.41.12-.81.18-1.22.16-1.23.31-2.47.45-3.72l.31-2.93-88.69-25.34c2.28-5.96,4.65-11.78,6.79-17.02,4.28-10.5,7.98-19.57,9.42-25.93,2.77-12.26,1.24-37.17-.99-61.83,8.11,2.05,17.03,3.99,26.67,5.65,16.84,2.9,37.24,5.12,60.18,5.12,26.19,0,55.72-2.92,87.05-11.01-1.83,44.09-3.83,93.01-2.2,104.97,2.23,16.35,11.61,29.26,17.81,37.8,1.21,1.66,2.25,3.1,3.07,4.33,1.12,1.68,5.24,7,11.47,15.04,22.21,28.67,74.21,95.82,84.77,121.57,4.65,11.33,7.9,22.26,9.7,32.55-.11,0-.22,0-.33,0-.31,0-.62.02-.94.02-.28,0-.57.02-.86.02-.31,0-.63.02-.95.03-.31.01-.62.02-.94.03-.32.01-.65.02-.98.04-.34.01-.69.03-1.05.05-.32.01-.64.03-.97.05-.38.02-.77.04-1.16.06-.32.02-.64.03-.96.05-.44.03-.9.05-1.35.08-.29.02-.57.03-.86.05-.75.05-1.51.1-2.29.16-.06,0-.13.01-.19.02-.72.05-1.45.11-2.19.17-.27.02-.54.05-.81.07-.54.05-1.08.09-1.64.15-.33.03-.67.06-1,.1-.51.05-1.02.1-1.53.15-.35.04-.71.08-1.06.11-.51.05-1.02.11-1.54.17-.37.04-.74.09-1.11.13-.51.06-1.03.12-1.55.19-.38.05-.77.1-1.16.15-.52.07-1.04.14-1.57.21-.39.05-.77.11-1.16.16-.54.08-1.08.15-1.62.23-.39.06-.78.12-1.17.18-.55.08-1.11.17-1.67.26-.38.06-.77.12-1.15.19-.58.1-1.17.2-1.76.3-.37.06-.73.13-1.1.19-.64.11-1.27.23-1.91.35-.33.06-.65.12-.98.18-.79.15-1.59.31-2.39.48-.18.04-.35.07-.52.11-.98.2-1.97.42-2.96.64-.19.04-.37.09-.56.13-.8.18-1.59.36-2.39.56-.33.08-.66.16-.99.24-.66.16-1.31.32-1.97.49-.38.1-.76.2-1.14.3-.61.16-1.22.32-1.84.49-.4.11-.81.23-1.21.34-.59.17-1.18.34-1.77.51-.42.12-.83.25-1.25.38-.58.18-1.15.35-1.73.53-.42.13-.84.27-1.26.4-.57.19-1.14.38-1.72.57-.42.14-.84.28-1.25.43-.57.2-1.14.4-1.72.61-.41.15-.82.3-1.23.45-.58.22-1.15.44-1.73.66-.4.15-.8.31-1.2.46-.6.24-1.19.48-1.78.73-.37.15-.75.31-1.12.46-.65.28-1.3.56-1.94.85-.31.14-.61.27-.92.41-.95.43-1.89.87-2.83,1.33-1.89.92-3.74,1.87-5.57,2.86-.6.32-1.18.67-1.78,1-1.21.67-2.42,1.34-3.61,2.04-.7.41-1.37.84-2.06,1.26-1.05.64-2.11,1.28-3.14,1.94-.72.46-1.42.93-2.13,1.4-.97.64-1.95,1.28-2.9,1.94-.72.49-1.41,1-2.12,1.5-.91.65-1.83,1.3-2.72,1.96-.7.52-1.39,1.05-2.08,1.57-.87.66-1.73,1.32-2.57,1.98-.68.54-1.35,1.08-2.02,1.62-.82.67-1.64,1.34-2.45,2.01-.66.55-1.3,1.1-1.94,1.66-.79.68-1.57,1.35-2.33,2.03-.63.56-1.25,1.11-1.86,1.67-.75.68-1.49,1.37-2.23,2.05-.6.56-1.19,1.12-1.77,1.68-.72.69-1.42,1.37-2.12,2.06-.57.56-1.13,1.11-1.68,1.67-.69.69-1.36,1.38-2.03,2.07-.53.55-1.06,1.09-1.57,1.63-.66.69-1.3,1.38-1.94,2.07-.49.53-.99,1.07-1.47,1.6-.63.69-1.24,1.38-1.85,2.06-.46.51-.92,1.03-1.36,1.54-.61.7-1.19,1.39-1.78,2.07-.41.48-.83.97-1.23,1.44-.6.71-1.16,1.41-1.74,2.1-.36.44-.73.88-1.07,1.31-.07.08-.14.17-.2.25-7.22-6.51-13.81-13.74-19.2-21.06Z"/>
</svg>