<?xml version="1.0" encoding="UTF-8"?>
<svg id="SVG" xmlns="http://www.w3.org/2000/svg" viewBox="0 0 360 635">
  <defs>
    <style>
      .cls-1 {
        fill: #fff;
      }

      .cls-2 {
        fill: #07c;
      }
    </style>
  </defs>
  <path class="cls-1" d="M49.63,14.87s1.32,31.62-3.76,45.18-10.16,60.99-10.16,82.16,11.58,96.56,6.21,120.28c-5.36,23.72-45.18,90.64-20.61,119.44,24.56,28.8,67.76,43.2,83.86,67.76s53.3,97.74,69.46,119.72c28.24,38.4,89.98,76.64,138.26,37.68,48.28-38.96,37.08-90.48,23.53-123.51-13.55-33.04-91.48-129.6-96.56-137.22-5.08-7.62-17.79-22.02-20.33-40.66-2.54-18.64,4.24-136.38,4.24-161.79s-9.32-64.38-13.55-77.08c-4.24-12.71,2.54-49.98,2.54-49.98,0,0-80.28,6.31-163.11-1.98Z"/>
  <path class="cls-2" d="M350.92,524.58h.07s-.56-3.97-.56-3.97l-.43-3.03h-.06c-1.84-11.13-5.29-22.92-10.3-35.14-10.93-26.63-61.44-91.85-85.71-123.2-5.92-7.64-10.19-13.16-11.18-14.64-.9-1.35-1.98-2.84-3.23-4.56-5.79-7.97-14.55-20.02-16.54-34.63-1.58-11.6.61-64.26,2.37-106.57,1.02-24.42,1.89-45.5,1.89-54.75,0-26.35-9.69-66.06-13.73-78.19-.3-.9-.55-2.05-.75-3.41h0c-2.06-14.42,3.36-44.53,3.41-44.83l.81-4.47-4.53.36c-.8.06-80.94,6.18-162.48-1.97l-4.01-.4.17,4.03c.01.31,1.22,30.81-3.49,43.65l-1.28,3.48.14.04c-4.93,17.34-9.3,60.49-9.3,80.02,0,7.45,1.37,21.17,2.96,37.06,3,30.04,6.74,67.44,3.34,82.45-1.31,5.8-4.91,14.62-9.08,24.83-2.22,5.44-4.69,11.51-7.06,17.74h-.01s-1.13,3.03-1.13,3.03l-1.32,3.54h.02c-9.09,25.25-16.6,55.37-1.28,73.33,12.34,14.46,28.83,25.12,44.78,35.44,2.14,1.38,4.26,2.76,6.36,4.12,12.59,8.24,25.46,17.17,32.46,27.85,7.04,10.75,18.17,30.91,29.95,52.25,14.98,27.13,30.46,55.18,39.61,67.62,5.75,7.82,12.8,15.51,20.51,22.42l-.03.04,2.53,2.17,2.79,2.39.03-.04c17.11,13.99,36.31,23.52,54.42,26.93,5.23.99,10.39,1.48,15.45,1.48,17.37,0,33.6-5.78,47.58-17.06,27.51-22.2,39.55-50.93,35.83-85.43ZM325.78,470.84c-51.1,40.86-95.63,58.31-124.91,65.73-16.17,4.1-29.44,5.64-39,6.12-3.72-6.42-7.7-13.46-11.79-20.79,9.71-.42,22.73-1.83,38.53-5.53,29.62-6.93,74.48-23.52,126.2-62.85,4.15,6.22,7.87,12.07,10.96,17.31ZM294.57,424.6c-53.35,38.51-98.93,53.77-128.64,59.71-13.76,2.75-25.36,3.8-34.4,4.06-4.28-7.72-8.37-15.06-12.12-21.59,8.21-.35,18-1.29,29.22-3.28,30.45-5.4,77.14-19.9,132.08-57.71,4.61,6.16,9.28,12.49,13.87,18.8ZM236.94,348.49c.59.89,2.02,2.79,4.15,5.57-54.58,34.32-100.19,46.62-129.83,50.77-8.47,1.18-16.1,1.78-22.82,2.01.14-.19.28-.38.42-.57.26-.35.52-.7.77-1.05.29-.4.58-.81.88-1.21.26-.36.51-.71.76-1.07.29-.41.58-.84.87-1.26.25-.36.5-.72.75-1.09.3-.44.59-.88.88-1.32.24-.36.48-.72.72-1.09.3-.47.61-.94.91-1.42.23-.35.45-.7.68-1.06.33-.53.66-1.07.98-1.6.19-.31.39-.62.58-.94.49-.82.98-1.66,1.47-2.5.12-.21.24-.43.37-.65.4-.7.79-1.4,1.18-2.11.19-.34.37-.69.56-1.04.3-.56.61-1.13.91-1.7.2-.39.4-.79.6-1.18.28-.54.55-1.08.82-1.62.21-.42.41-.84.61-1.26.26-.53.52-1.06.77-1.6.04-.09.09-.18.13-.27,31.11-3.52,74.01-13.9,124.95-40.47,1.36,1.96,2.67,3.77,3.87,5.42,1.21,1.66,2.25,3.09,3.07,4.33ZM226.15,332.86c-47.65,24.76-88,35.07-117.89,38.91.17-.43.34-.85.51-1.28.19-.48.37-.96.55-1.44.21-.56.42-1.12.62-1.68.18-.49.35-.98.52-1.48.2-.57.39-1.14.59-1.71.17-.5.33-1,.5-1.5.19-.58.37-1.17.55-1.76.16-.51.31-1.01.46-1.52.18-.6.35-1.2.52-1.8.14-.51.29-1.03.43-1.54.17-.61.32-1.23.48-1.85.13-.52.26-1.03.39-1.55.15-.64.3-1.28.45-1.92.12-.51.24-1.03.35-1.54.14-.66.28-1.34.41-2.01.1-.51.21-1.01.3-1.52.13-.71.25-1.42.38-2.14.08-.48.17-.96.25-1.45.13-.8.24-1.62.36-2.43.06-.41.12-.81.18-1.22.11-.85.21-1.7.31-2.56,27.5-1.67,61.33-7.38,100.58-20.84,2,6.69,5.04,12.67,8.21,17.85ZM48.3,64.41c.79.22,1.6.45,2.42.68.22.06.43.12.65.18.79.21,1.59.43,2.41.64.08.02.16.04.25.07.89.23,1.81.46,2.74.69.23.06.45.11.68.17,1.92.47,3.92.94,6,1.4.23.05.45.1.68.15,2.12.46,4.31.92,6.59,1.36.23.05.47.09.7.14,1.15.22,2.32.44,3.51.65.05,0,.1.02.14.02,1.15.2,2.32.4,3.5.6.24.04.48.08.72.12,1.24.2,2.49.4,3.77.59.1.01.2.03.3.04,1.19.18,2.4.35,3.62.52.25.03.51.07.76.1,1.32.18,2.65.35,4,.51.15.02.3.03.45.05,1.24.15,2.5.29,3.77.43.26.03.52.06.78.08,1.39.15,2.8.28,4.22.41.21.02.41.04.62.05,1.28.11,2.58.22,3.88.32.27.02.54.04.81.06,1.46.11,2.93.21,4.43.3.25.02.51.03.77.04,1.33.08,2.68.15,4.04.21.27.01.53.03.8.04,1.53.07,3.08.12,4.64.17.3,0,.6.02.9.02,1.39.04,2.8.07,4.21.09.27,0,.53,0,.8.01,1.35.02,2.7.03,4.07.03.23,0,.46,0,.69,0,.5,0,1,0,1.49,0,1.22,0,2.44-.02,3.67-.04.57,0,1.14-.02,1.72-.03,1.26-.03,2.52-.06,3.8-.11.5-.02,1-.03,1.5-.05,1.76-.07,3.54-.14,5.34-.24.19,0,.38-.02.56-.03,1.61-.09,3.22-.19,4.85-.3.58-.04,1.17-.09,1.76-.13,1.27-.09,2.55-.19,3.84-.3.64-.05,1.29-.11,1.94-.17,1.34-.12,2.7-.25,4.06-.39.54-.06,1.08-.11,1.63-.16,1.88-.2,3.78-.41,5.7-.65.35-.04.7-.09,1.06-.14,1.58-.2,3.17-.41,4.77-.63.66-.09,1.32-.19,1.98-.28,1.34-.19,2.69-.39,4.04-.61.69-.11,1.38-.21,2.07-.33,1.47-.24,2.96-.49,4.45-.75.54-.09,1.07-.18,1.61-.28,2.01-.36,4.04-.74,6.08-1.13.43-.08.87-.18,1.31-.26,1.63-.32,3.26-.66,4.91-1.01.27-.06.54-.11.81-.17.09.33.19.65.29.96,1.36,4.07,3.37,11.33,5.42,20.14-64.59,13.79-112.61,9.32-142.27,2.73-9.95-2.21-18.49-4.78-25.63-7.34,1.2-7.87,2.51-14.69,3.81-19.27.03,0,.06.02.09.02ZM68.05,97.72c15.96,3.58,37.09,6.57,63.11,6.57,23.59,0,51.23-2.48,82.67-9.2,1.35,6.31,2.66,13.12,3.74,19.97-67.26,15.18-117.08,10.65-147.53,3.88-11.52-2.56-21.16-5.61-28.92-8.54.64-6.62,1.42-13.34,2.27-19.66,6.99,2.43,15.2,4.86,24.66,6.98ZM68.05,125.67c15.96,3.58,37.09,6.57,63.11,6.57s54-2.73,87.41-10.23c.97,7.31,1.6,14.45,1.67,20.85-67.6,15.37-117.65,10.82-148.21,4.04-13.49-3-24.41-6.66-32.73-10.03.17-5.64.58-12.25,1.16-19.2,7.58,2.77,16.77,5.59,27.58,8.02ZM70.05,153.62c15.96,3.58,37.09,6.57,63.11,6.57,24.68,0,53.77-2.71,87.02-10.15-.12,5.62-.39,13.16-.73,21.94-67.2,15.16-116.98,10.62-147.42,3.86-12.64-2.81-23.01-6.2-31.12-9.39-.87-9.1-1.53-16.82-1.67-22.06,8.15,3.15,18.41,6.45,30.81,9.23ZM70.05,182.57c15.96,3.58,37.09,6.57,63.11,6.57,24.42,0,53.19-2.66,86.01-9.93-.24,6.07-.52,12.58-.8,19.34,0,.21-.02.41-.03.62-66.63,14.85-116.04,10.34-146.31,3.61-11.24-2.5-20.7-5.46-28.36-8.33-.51-5.34-1.04-10.62-1.54-15.69-.15-1.53-.3-3.03-.45-4.51,7.73,2.87,17.17,5.8,28.37,8.31ZM70.05,209.52c15.96,3.58,37.09,6.57,63.11,6.57,24.14,0,52.53-2.61,84.88-9.68-.29,6.96-.58,14.01-.85,20.97-66.05,14.55-115.06,10.05-145.15,3.36-10.11-2.25-18.77-4.87-25.99-7.46-.43-6.83-1.01-13.97-1.66-21.08,7.2,2.55,15.73,5.11,25.66,7.33ZM46.47,230.86c6.75,2.31,14.59,4.59,23.58,6.61,15.96,3.58,37.09,6.57,63.11,6.57,23.86,0,51.87-2.54,83.75-9.43-.28,7.23-.53,14.3-.75,21.04-65.3,15.36-114.03,11.67-144.08,5.52-9.89-2.03-18.4-4.43-25.54-6.85.44-6.57.35-14.64-.07-23.45ZM45.34,263.46c.14-.64.27-1.32.39-2.02,6.96,2.28,15.11,4.54,24.48,6.48,16.02,3.31,37.19,5.96,63.21,5.53,23.59-.39,51.2-3.33,82.52-10.56-.22,7.48-.37,14.4-.44,20.51-64.43,17.21-113.02,15.06-143.13,9.87-14.28-2.46-25.78-5.79-34.4-8.89,3.39-8.36,6.17-15.59,7.38-20.91ZM35.31,290.89c8.88,3.2,20.67,6.62,35.39,9.19,12.73,2.22,28.66,3.92,47.6,3.92,26.61,0,59.19-3.4,97.15-13.36,0,7.2.19,12.68.6,15.73.08.6.19,1.18.29,1.77-42.82,14.76-79,20.12-107.38,21.09l-79.84-22.81c2.07-5.41,4.21-10.68,6.18-15.53ZM77.3,420.2c.25-.27.5-.54.75-.82.29-.32.59-.64.88-.97.25-.28.51-.57.77-.86.29-.33.58-.66.88-1,.26-.29.51-.59.77-.89.29-.34.59-.69.88-1.03.19-.22.37-.44.56-.66,8.14-.04,17.84-.61,28.97-2.14,30.53-4.21,77.53-16.81,133.63-52.19.94,1.22,1.95,2.52,3.02,3.9,3.2,4.14,7.03,9.08,11.26,14.58-52.77,34.67-97.27,47.86-126.4,52.69-15.8,2.62-28.73,3.12-38.19,2.87-5.51-4.74-11.71-9.11-17.96-13.27.06-.07.13-.14.19-.21ZM102.41,440.73c8.65-.15,19.23-.93,31.53-2.95,30-4.92,75.81-18.42,130-54.11,3.97,5.18,8.2,10.75,12.55,16.52-53.59,36.85-99.02,51.03-128.63,56.34-12.8,2.3-23.72,3.17-32.46,3.35-2.72-4.63-5.19-8.69-7.31-11.92-1.65-2.52-3.57-4.92-5.69-7.24ZM135.33,495.26c8.66-.43,19.23-1.56,31.5-3.99,30.51-6.04,77.27-21.6,131.84-61,4.26,5.93,8.38,11.8,12.23,17.44-50.68,38.61-94.51,54.91-123.42,61.74-17.49,4.13-31.56,5.35-41.24,5.54-2.63-4.74-5.28-9.54-7.92-14.32-1-1.82-2-3.62-2.99-5.41ZM177.45,567.54c-3.15-4.28-7.11-10.54-11.58-18.04,9.44-.68,21.67-2.35,36.26-6.02,29.89-7.51,75.24-25.17,127.14-66.47,1.62,3.01,2.94,5.73,3.91,8.1,4.65,11.33,7.9,22.26,9.7,32.55-.11,0-.22,0-.33,0-.31,0-.62.02-.94.02-.28,0-.57.02-.86.02-.31,0-.63.02-.95.03-.31.01-.62.02-.94.03-.32.01-.65.02-.98.04-.34.01-.69.03-1.04.05-.32.01-.64.03-.97.05-.38.02-.77.04-1.16.06-.32.02-.64.03-.96.05-.44.03-.9.05-1.35.08-.29.02-.57.03-.86.05-.75.05-1.51.1-2.29.16-.06,0-.13.01-.19.02-.72.05-1.45.11-2.19.17-.27.02-.54.05-.82.07-.54.05-1.08.09-1.64.15-.33.03-.67.06-1,.1-.51.05-1.02.1-1.53.15-.35.04-.71.08-1.07.11-.51.05-1.02.11-1.53.17-.37.04-.74.09-1.11.13-.51.06-1.02.12-1.54.19-.38.05-.77.1-1.16.15-.52.07-1.04.14-1.57.21-.39.05-.77.11-1.16.16-.54.08-1.08.15-1.62.24-.39.06-.78.12-1.17.18-.55.08-1.11.17-1.67.26-.38.06-.77.12-1.15.19-.58.1-1.17.2-1.76.3-.37.06-.73.13-1.1.19-.64.11-1.27.23-1.91.35-.33.06-.65.12-.98.18-.79.15-1.59.31-2.38.48-.18.04-.35.07-.53.11-.98.2-1.97.42-2.96.64-.19.04-.38.09-.57.13-.79.18-1.59.36-2.38.55-.33.08-.66.16-.99.24-.66.16-1.32.32-1.97.49-.38.1-.76.2-1.13.3-.61.16-1.22.32-1.84.49-.4.11-.8.23-1.21.34-.59.17-1.18.34-1.77.51-.42.12-.83.25-1.25.37-.58.18-1.15.35-1.73.54-.42.13-.84.27-1.26.4-.57.19-1.14.38-1.71.57-.42.14-.84.28-1.26.43-.57.2-1.14.4-1.71.61-.41.15-.82.3-1.24.45-.58.21-1.15.44-1.73.66-.4.15-.8.31-1.2.47-.6.24-1.19.48-1.78.73-.37.15-.75.31-1.12.46-.65.28-1.3.56-1.94.85-.31.14-.61.27-.92.41-.95.43-1.89.87-2.83,1.33-1.89.92-3.74,1.87-5.57,2.86-.6.32-1.18.67-1.78,1-1.21.67-2.42,1.34-3.61,2.04-.7.41-1.37.84-2.06,1.26-1.05.64-2.11,1.28-3.14,1.94-.72.46-1.42.93-2.13,1.4-.97.64-1.95,1.28-2.9,1.94-.72.49-1.41,1-2.12,1.5-.91.65-1.83,1.3-2.72,1.96-.7.52-1.39,1.05-2.08,1.57-.87.66-1.73,1.32-2.57,1.98-.68.54-1.35,1.08-2.02,1.62-.82.67-1.64,1.34-2.45,2.01-.66.55-1.3,1.1-1.94,1.66-.79.68-1.57,1.35-2.33,2.03-.63.56-1.25,1.11-1.86,1.67-.75.68-1.49,1.37-2.23,2.05-.6.56-1.19,1.12-1.77,1.68-.72.69-1.42,1.37-2.12,2.06-.57.56-1.13,1.11-1.68,1.67-.69.69-1.36,1.38-2.03,2.07-.53.55-1.06,1.09-1.57,1.63-.66.69-1.3,1.38-1.94,2.07-.5.53-.99,1.07-1.47,1.6-.63.69-1.24,1.38-1.85,2.06-.46.51-.92,1.03-1.36,1.54-.61.7-1.19,1.39-1.78,2.07-.41.48-.83.97-1.23,1.44-.6.71-1.16,1.41-1.74,2.1-.36.44-.73.88-1.07,1.31-.07.08-.14.17-.2.25-7.22-6.51-13.81-13.74-19.2-21.06Z"/>
</svg>