<?xml version="1.0" encoding="UTF-8"?>
<svg id="SVG" xmlns="http://www.w3.org/2000/svg" viewBox="0 0 360 635">
  <defs>
    <style>
      .cls-1 {
        fill: #fff;
      }

      .cls-2 {
        fill: #07c;
      }
    </style>
  </defs>
  <path class="cls-1" d="M48.91,13.24s1.32,31.62-3.76,45.18-10.16,60.99-10.16,82.16,11.58,96.56,6.21,120.28-45.18,90.64-20.61,119.44c24.56,28.8,67.76,43.2,83.86,67.76s53.3,97.74,69.46,119.72c28.24,38.4,89.98,76.64,138.26,37.68,48.28-38.96,37.08-90.48,23.53-123.51-13.55-33.04-91.48-129.6-96.56-137.22-5.08-7.62-17.79-22.02-20.33-40.66-2.54-18.64,4.24-136.38,4.24-161.79s-9.32-64.38-13.55-77.08c-4.24-12.71,2.54-49.98,2.54-49.98,0,0-80.28,6.31-163.11-1.98Z"/>
  <g>
    <path class="cls-2" d="M350.21,522.95h.07s-.56-3.97-.56-3.97l-.43-3.03h-.06c-1.84-11.13-5.29-22.92-10.3-35.14-10.93-26.63-61.44-91.85-85.71-123.2-5.92-7.64-10.19-13.16-11.18-14.64-.9-1.35-1.98-2.84-3.23-4.56-5.79-7.97-14.55-20.02-16.54-34.63-1.58-11.6.61-64.26,2.37-106.57,1.02-24.42,1.89-45.5,1.89-54.75,0-26.35-9.69-66.07-13.73-78.19-.3-.9-.55-2.05-.75-3.41h0c-2.06-14.42,3.36-44.53,3.41-44.83l.81-4.47-4.53.36c-.8.06-80.94,6.19-162.48-1.97l-4.01-.4.17,4.03c.01.31,1.22,30.81-3.49,43.65l-1.28,3.48.14.04c-4.93,17.34-9.3,60.49-9.3,80.02,0,7.45,1.37,21.17,2.96,37.06,3,30.04,6.74,67.44,3.34,82.45-1.31,5.8-4.91,14.62-9.08,24.83-2.22,5.44-4.69,11.51-7.06,17.74h-.01s-1.13,3.03-1.13,3.03l-1.32,3.54h.02c-9.09,25.25-16.6,55.37-1.28,73.33,12.34,14.46,28.83,25.12,44.78,35.44,2.14,1.38,4.26,2.76,6.35,4.12,12.59,8.24,25.46,17.17,32.46,27.85,7.04,10.75,18.17,30.91,29.95,52.25,14.98,27.13,30.46,55.18,39.61,67.62,5.75,7.82,12.8,15.51,20.51,22.42l-.03.04,2.53,2.17,2.79,2.39.03-.04c17.11,13.99,36.31,23.52,54.42,26.93,5.23.99,10.39,1.48,15.45,1.48,17.37,0,33.6-5.78,47.58-17.06,27.51-22.2,39.55-50.93,35.83-85.43ZM76.59,418.57c.25-.27.5-.54.75-.82.29-.32.59-.64.88-.97,0,0,0,0,0,0-.25.92-.45,1.85-.63,2.8-.4-.27-.8-.53-1.19-.8.06-.07.13-.14.19-.21ZM176.73,565.91c-4.07-5.54-9.51-14.39-15.64-24.95,3.83,1.37,7.94,2.14,12.24,2.14,20.06,0,36.33-16.26,36.33-36.33s-16.26-36.33-36.33-36.33c-17.53,0-32.14,12.42-35.56,28.93-.06-.11-.12-.21-.18-.32-7.37-13.36-14.49-26.25-20.55-36.73,18.3-1.88,32.57-17.34,32.57-36.13,0-20.06-16.26-36.33-36.33-36.33-6.75,0-13.06,1.85-18.48,5.05.18-.28.36-.57.54-.85.33-.53.66-1.07.98-1.6.19-.31.39-.62.58-.94.49-.82.98-1.66,1.47-2.5.12-.21.24-.43.37-.65.4-.7.79-1.4,1.18-2.11.19-.34.37-.69.56-1.04.3-.56.61-1.13.91-1.7.2-.39.4-.79.6-1.18.28-.54.55-1.08.82-1.62.21-.42.41-.84.61-1.26.26-.53.52-1.06.77-1.6.21-.44.41-.88.61-1.32.24-.53.49-1.07.73-1.61.2-.45.4-.91.59-1.37.23-.54.46-1.08.69-1.63.19-.47.38-.94.57-1.41.22-.55.44-1.1.66-1.65.19-.48.37-.96.55-1.44.21-.56.42-1.12.62-1.68.18-.49.35-.98.52-1.48.2-.57.39-1.14.59-1.71.17-.5.33-1,.5-1.5.19-.58.37-1.17.55-1.76.16-.51.31-1.01.46-1.52.18-.6.35-1.2.52-1.8.14-.51.29-1.03.43-1.54.17-.61.32-1.23.48-1.85.13-.52.26-1.03.39-1.55.15-.64.3-1.28.45-1.92.12-.51.24-1.03.35-1.54.14-.66.28-1.34.41-2.01.1-.51.21-1.01.3-1.52.13-.71.25-1.42.38-2.14.08-.48.17-.96.25-1.45.13-.8.24-1.62.36-2.43.06-.41.12-.81.18-1.22.16-1.23.31-2.47.45-3.72l.31-2.93-88.69-25.34c2.28-5.96,4.65-11.78,6.79-17.02,4.28-10.5,7.98-19.57,9.42-25.93,3-13.25.97-41.28-1.54-67.8,3.23.94,6.65,1.46,10.18,1.46,20.06,0,36.33-16.26,36.33-36.33s-16.26-36.33-36.33-36.33c-5.05,0-9.85,1.05-14.22,2.91,1.34-21.67,4.94-50.57,8.46-62.99.03,0,.06.02.09.02.79.22,1.6.45,2.43.68.21.06.42.11.63.17.81.22,1.64.44,2.49.66.06.01.11.03.17.04.91.24,1.84.47,2.79.71.2.05.4.1.61.15,1.94.48,3.97.95,6.08,1.42.2.04.41.09.61.13,2.14.47,4.36.93,6.66,1.37.21.04.42.08.63.12,1.17.22,2.36.45,3.58.66,0,0,.01,0,.02,0,.89.16,1.8.32,2.71.47,0,.26-.02.53-.02.79,0,20.06,16.26,36.33,36.33,36.33s34.66-14.66,36.19-33.31c1.44-.08,2.89-.17,4.36-.27.6-.04,1.21-.09,1.82-.13,1.25-.09,2.5-.19,3.76-.3.67-.06,1.33-.11,2.01-.17,1.31-.12,2.64-.25,3.97-.38.57-.06,1.14-.11,1.71-.17,1.87-.2,3.76-.41,5.66-.64.38-.05.77-.1,1.16-.15,1.55-.19,3.1-.4,4.66-.61.68-.09,1.35-.19,2.03-.29,1.32-.19,2.65-.39,3.98-.6.7-.11,1.41-.22,2.11-.33,1.46-.24,2.92-.48,4.4-.74.55-.1,1.1-.19,1.65-.28,2.01-.36,4.03-.73,6.07-1.13.44-.09.88-.18,1.33-.27,1.62-.32,3.25-.66,4.89-1,.27-.06.54-.11.81-.17.09.33.19.65.29.96,3.94,11.81,13.37,50.44,13.37,75.98,0,9.1-.88,30.12-1.89,54.45-.33,7.97-.67,16.13-1,24.23-7.4,6.65-12.06,16.28-12.06,27.01,0,9.86,3.94,18.79,10.32,25.33-.31,14.82-.26,26.24.42,31.23,2.23,16.35,11.61,29.26,17.81,37.8,1.21,1.66,2.25,3.09,3.07,4.33,1.12,1.68,5.24,7,11.47,15.04,19.67,25.4,62.73,81,79.64,111.26-4.24-1.74-8.88-2.72-13.75-2.72-20.06,0-36.33,16.26-36.33,36.33,0,6.6,1.77,12.79,4.85,18.12-.14.04-.28.09-.42.13-.58.18-1.15.35-1.73.53-.42.13-.84.27-1.26.4-.57.19-1.14.38-1.71.57-.42.14-.84.28-1.26.43-.57.2-1.14.4-1.71.61-.41.15-.82.3-1.24.45-.58.21-1.15.44-1.73.66-.4.15-.8.31-1.2.47-.6.24-1.19.48-1.78.73-.37.15-.75.31-1.12.46-.65.28-1.3.56-1.94.85-.31.14-.61.27-.92.41-.95.43-1.89.87-2.83,1.33-1.89.92-3.74,1.87-5.57,2.86-.6.32-1.18.67-1.78,1-1.21.67-2.42,1.34-3.61,2.04-.7.41-1.37.84-2.06,1.26-1.05.64-2.11,1.28-3.14,1.94-.72.46-1.42.93-2.13,1.4-.97.64-1.95,1.28-2.9,1.94-.72.49-1.41,1-2.12,1.5-.91.65-1.83,1.3-2.72,1.96-.7.52-1.39,1.05-2.08,1.57-.87.66-1.73,1.32-2.57,1.98-.68.54-1.35,1.08-2.02,1.62-.82.67-1.64,1.34-2.45,2.01-.66.55-1.3,1.1-1.94,1.66-.79.68-1.57,1.35-2.33,2.03-.63.56-1.25,1.11-1.86,1.67-.75.68-1.49,1.37-2.23,2.05-.6.56-1.19,1.12-1.77,1.68-.72.69-1.42,1.37-2.12,2.06-.57.56-1.13,1.11-1.68,1.67-.69.69-1.36,1.38-2.03,2.07-.53.55-1.06,1.09-1.57,1.63-.66.69-1.3,1.38-1.94,2.07-.5.53-.99,1.07-1.47,1.6-.63.69-1.24,1.38-1.85,2.06-.46.51-.92,1.03-1.36,1.54-.61.7-1.19,1.39-1.78,2.07-.41.48-.83.97-1.23,1.44-.6.71-1.16,1.41-1.74,2.1-.36.44-.73.88-1.07,1.31-.07.08-.14.17-.2.25-7.22-6.51-13.81-13.74-19.2-21.06Z"/>
    <circle class="cls-2" cx="173.34" cy="159.17" r="36.33"/>
    <circle class="cls-2" cx="113.3" cy="248.18" r="36.33" transform="translate(-86.35 62.25) rotate(-22.5)"/>
    <circle class="cls-2" cx="173.34" cy="337.18" r="36.33"/>
    <circle class="cls-2" cx="240.92" cy="426.19" r="36.33" transform="translate(-206.93 623.95) rotate(-84.35)"/>
  </g>
</svg>